<?xml version="1.0" encoding="UTF-8"?>
<svg xmlns="http://www.w3.org/2000/svg" width="350" height="270" viewBox="0 0 350 270">
<path d="m334.8552,193.27523-26.34011-71.35147c-11.06418-28.701029 26.72116-33.762444 26.72116-33.762444 8.39675-4.651025 0-9.712435 0-9.712435-8.77779,2.099986-15.26923-10.126516-15.26923-10.126516L315.0132,56.916631c-2.67412-6.751012-3.43624-7.597661-.3844-20.678207 3.05184-13.099033-6.67862-12.463121-8.39675-10.562782-1.72146,1.911431-7.06302,4.854369-11.07085,.421475-4.0045-4.432892-14.11937-4.21476-14.11937-4.21476l-3.81731-8.448007-4.20171,0-4.19504,8.44431-74.0498,0 0,2.532553-154.96207,0 0-4.222155-3.061871,0c-.374377-3.3829-2.664095-5.911755-2.664095-5.911755-12.601803,0-15.265899,10.551689-15.265899,10.551689l-9.9310228,0 C 3.173732,36.234727 9.2874455,48.893796 9.2874455,48.893796l11.0641835,0 0,34.195019 23.281581,0 1.90197,5.493978 58.02512,0c 54.19444,0 44.65117,50.229597 44.65117,50.229597 40.84388,20.6893 66.41518,7.60506 66.41518,7.60506 20.23308-4.63994 24.04704,14.35236 24.04704,14.35236l13.73497,60.3746c 1.14653,10.54799-.47466,16.87013-.47466,16.87013l0.0267,.86514-.0267,0 0,8.52195c 0,0-.31755,4.61405 5.45188,3.8968l64.04522-5.95982c 1.55099,2.89858 4.37888,4.85437 7.63463,4.85437 4.92372,0 8.90482-4.41071 8.90482-9.84553 0-1.08696-.19721-1.91883-.48803-2.63238l1.94877-.0148c 4.58278-28.29065-4.57609-44.42505-4.57609-44.42505z
M309.84547,26.899401c1.60447,0 2.91144,1.438194 2.91144,3.223922 0,1.778334-1.30697,3.216528-2.91144,3.216528-1.60783,0-2.92483-1.438194-2.92483-3.216528 0-1.785728 1.31366-3.223922 2.92483-3.223922z
M229.13043,126.5674c-1.14987,7.60875-8.40009,11.82721-8.40009,11.82721-24.76573,9.20222-40.67007,6.61421-53.23844,2.44382-15.33945-5.10208-14.31325-21.45461-14.31325-21.45461 0-22.367805 20.9952-21.946337 20.9952-21.946337l17.17122,0c9.54661,25.325537-13.73831,36.738667-13.73831,36.738667-3.06187,.83556 0,3.3755 0,3.3755 14.11937-.42147 25.56462-25.7544 25.56462-25.7544 l-.37438-10.55539 5.33487-3.804377c20.99856,0 22.14509,21.535947 20.99856,29.129917z
m105.72142,113.77635c0,3.5234-2.59724,6.39238-5.78278,6.39238-3.19224,0-5.77946-2.86528-5.77946-6.39238 0-.89841 .17382-1.75245 .47131-2.52516l10.57951-.085c.31756,.79859 .51142,1.67851 .51142,2.61019"/>
</svg>