<?xml version="1.0"?>
<svg xmlns="http://www.w3.org/2000/svg" xmlns:xlink="http://www.w3.org/1999/xlink" version="1.1" id="Layer_1" x="0px" y="0px" viewBox="0 0 512 512" style="enable-background:new 0 0 512 512;" xml:space="preserve" width="512px" height="512px"><g><g>
	<g>
		<g>
			<circle cx="256" cy="51.2" r="51.2" data-original="#000000" class="active-path" data-old_color="#000000" fill="#E3E9ED"/>
			<path d="M341.333,119.467H170.667c-23.564,0-42.667,19.103-42.667,42.667v128c0,14.138,11.461,25.6,25.6,25.6     c14.138,0,25.6-11.461,25.6-25.6V179.2h17.067v307.2c0,14.138,11.462,25.6,25.6,25.6s25.6-11.461,25.6-25.6V315.733h17.067V486.4     c0,14.138,11.462,25.6,25.6,25.6s25.6-11.461,25.6-25.6V179.2H332.8v110.933c0,14.138,11.462,25.6,25.6,25.6     s25.6-11.461,25.6-25.6v-128C384,138.569,364.898,119.467,341.333,119.467z" data-original="#000000" class="active-path" data-old_color="#000000" fill="#E3E9ED"/>
		</g>
	</g>
</g></g> </svg>
