<svg xmlns="http://www.w3.org/2000/svg" viewBox="0 0 321083 333333" shape-rendering="geometricPrecision" text-rendering="geometricPrecision" image-rendering="optimizeQuality" fill-rule="evenodd" clip-rule="evenodd"><path d="M227781 4207c597-2352 2988-3774 5339-3177 2352 597 3773 2988 3176 5339-5215 20503-11028 40939-16812 61272-8950 31463-17831 62684-24322 93580-51 245-122 481-209 706-3171 8759-4970 17371-5075 25800-104 8369 1461 16618 5010 24720 967 2218-48 4802-2267 5769-2218 967-4802-48-5769-2267-3532-8064-5346-16266-5679-24586-30732-5646-63941-22494-100776-41184-22470-11402-46308-23496-71611-34059l764 161948c39897 14933 80645 26836 122480 34859 42726 8195 86563 12345 131755 11552l57-4c15026-967 25297-5035 30709-12908 5513-8020 6393-20402 2561-37901-1870-8540 204-21334 1909-31864 493-3041 953-5876 1304-8696 4736-38017 8084-75985 10012-113961 1936-38123 2462-76325 1552-114663-57-2418 1857-4424 4275-4481s4424 1857 4481 4275c917 38620 391 77027-1552 115281-1950 38401-5309 76585-10047 114613-291 2339-812 5554-1372 9005-1583 9775-3508 21651-1978 28637 4374 19975 3035 34594-3935 44733-7070 10286-19548 15539-37370 16685-158 10-315 11-469 4-45867 806-90294-3394-133541-11689-43319-8308-85480-20725-126740-36331-1835-691-2935-2482-2834-4342L-1 109586c-9-2418 1943-4386 4361-4395 582-2 1138 109 1646 313l2-4c27936 11276 53937 24469 78337 36849 35667 18097 67876 34438 97022 40111 635-7721 2455-15500 5273-23327 6593-31313 15461-62485 24396-93897 5747-20204 11524-40511 16743-61031z" fill-rule="nonzero"/></svg>