<?xml version="1.0" encoding="utf-8"?>
<!-- Svg Vector Icons : http://www.onlinewebfonts.com/icon -->
<!DOCTYPE svg PUBLIC "-//W3C//DTD SVG 1.1//EN" "http://www.w3.org/Graphics/SVG/1.1/DTD/svg11.dtd">
<svg version="1.1" xmlns="http://www.w3.org/2000/svg" xmlns:xlink="http://www.w3.org/1999/xlink" x="0px" y="0px" viewBox="0 0 1000 1000" enable-background="new 0 0 1000 1000" xml:space="preserve">
<metadata> Svg Vector Icons : http://www.onlinewebfonts.com/icon </metadata>
<g><path d="M18.9,243.1c0,0,40.1,100.1,34.3,177.4c-5.7,77.2-8.6,128.7-17.2,160.2c-8.6,31.5-65.8,168.8,22.9,223.1c0,0,80.1,14.3,183.1-5.7c0,0,74.4-17.1,137.3,17.2c0,0,248.9,100.1,423.4,25.7c0,0,65.8-5.7,97.3-17.1c0,0,143-68.7,68.7-123c0,0-77.2-2.9-94.4,5.7c0,0-45.8-22.9-77.2-14.3c0,0-100.1-34.3-120.1-62.9c-20-28.6-203.1-188.8-228.8-211.7c-25.7-22.9-108.7-185.9-125.9-214.6c-17.2-28.6-28.6-71.5-28.6-71.5L18.9,243.1z"/></g>
</svg>