<?xml version="1.0" standalone="no"?>
<!DOCTYPE svg PUBLIC "-//W3C//DTD SVG 20010904//EN"
 "http://www.w3.org/TR/2001/REC-SVG-20010904/DTD/svg10.dtd">
<svg version="1.0" xmlns="http://www.w3.org/2000/svg"
 width="947.000000pt" height="1280.000000pt" viewBox="0 0 947.000000 1280.000000"
 preserveAspectRatio="xMidYMid meet">
<metadata>
Created by potrace 1.15, written by Peter Selinger 2001-2017
</metadata>
<g transform="translate(0.000000,1280.000000) scale(0.100000,-0.100000)" stroke="none">
<path d="M5113 12775 c-128 -40 -231 -149 -283 -301 -12 -32 -30 -111 -41
-174 -11 -63 -40 -205 -64 -315 -24 -110 -46 -231 -50 -270 -17 -189 -47 -466
-56 -515 -6 -30 -71 -302 -144 -605 -74 -302 -143 -599 -154 -660 -11 -60 -41
-290 -66 -510 -69 -604 -110 -858 -154 -942 -38 -76 -226 -223 -284 -223 -8 0
-29 32 -49 78 -32 70 -36 91 -47 227 -47 579 -67 701 -236 1465 -74 333 -84
441 -95 1080 -10 537 -17 640 -45 725 -36 106 -88 158 -220 221 -128 61 -231
65 -371 13 -97 -36 -203 -151 -247 -267 -22 -56 -22 -66 -19 -472 2 -349 5
-438 22 -560 48 -345 50 -388 50 -875 0 -351 4 -498 15 -580 15 -120 55 -490
81 -765 9 -96 17 -240 18 -320 1 -134 -1 -151 -27 -228 l-28 -84 -97 -46 c-89
-43 -105 -47 -185 -50 -148 -7 -168 0 -249 76 -220 207 -462 487 -714 823
-159 214 -200 278 -250 396 -228 541 -467 865 -692 938 -44 15 -61 15 -119 5
-92 -16 -164 -52 -212 -107 -69 -78 -106 -216 -88 -332 11 -79 85 -292 164
-477 58 -136 90 -192 205 -365 174 -262 216 -334 287 -505 105 -252 232 -487
401 -739 36 -55 74 -118 82 -140 9 -22 55 -120 103 -219 47 -98 102 -217 121
-263 79 -190 182 -761 219 -1213 37 -450 103 -1014 141 -1200 34 -162 87 -346
119 -409 31 -62 156 -361 241 -578 64 -162 137 -435 269 -1008 78 -339 100
-548 92 -867 -5 -204 -33 -435 -167 -1388 -16 -118 -30 -223 -30 -232 0 -17
83 -18 1596 -18 l1597 0 -7 128 c-16 315 -26 768 -26 1252 0 574 -1 560 65
855 48 211 69 275 133 399 47 89 74 127 151 208 51 54 140 136 196 183 61 50
199 188 343 342 132 142 291 307 353 367 63 60 200 193 305 295 105 102 242
233 304 291 120 111 220 235 270 335 16 33 57 125 91 205 83 196 232 503 256
527 18 18 62 77 103 138 8 12 24 35 35 51 10 16 41 53 67 82 26 30 51 65 54
78 4 15 19 30 39 38 40 17 130 127 146 179 9 27 18 37 33 37 33 0 79 33 122
86 21 27 68 78 104 114 36 36 142 148 235 248 l170 183 205 135 c113 75 211
143 218 152 6 9 12 27 12 41 0 13 7 33 16 43 12 12 17 35 16 78 -1 49 -8 73
-38 131 -46 88 -107 136 -225 181 -80 30 -91 31 -224 31 -216 0 -602 -68 -759
-133 -293 -122 -483 -248 -636 -421 -36 -41 -104 -112 -151 -159 -47 -47 -137
-155 -200 -240 -84 -113 -163 -203 -290 -331 -96 -96 -190 -184 -210 -194
l-37 -18 -25 29 c-14 16 -31 52 -38 79 -13 56 -71 228 -117 350 -20 53 -32
108 -37 163 -4 46 -13 108 -21 138 -9 35 -14 107 -14 198 0 133 3 156 39 307
22 90 56 267 76 392 36 223 39 237 155 590 119 361 222 658 299 858 22 58 65
191 95 297 54 185 71 266 115 547 27 167 80 392 148 623 109 371 160 635 170
883 9 225 -26 337 -145 458 -94 96 -169 132 -293 139 -87 5 -91 4 -164 -32
-127 -63 -180 -143 -309 -469 -77 -192 -89 -236 -151 -541 -25 -121 -55 -248
-66 -281 -36 -99 -146 -361 -216 -509 -35 -77 -84 -192 -108 -257 -24 -65 -66
-166 -93 -226 -27 -59 -95 -227 -152 -373 -121 -314 -190 -480 -236 -572 -39
-76 -135 -216 -184 -265 -28 -29 -215 -133 -238 -133 -5 0 -12 12 -15 27 -8
40 67 518 118 753 57 265 112 550 120 620 4 30 15 87 26 125 28 108 38 184 49
405 11 224 42 576 66 765 16 125 23 168 74 430 35 182 110 760 110 844 0 75
-24 173 -58 235 -36 68 -144 174 -217 213 -116 61 -244 79 -342 48z"/>
</g>
</svg>
