<?xml version="1.0" encoding="UTF-8" standalone="no"?>
<!DOCTYPE svg PUBLIC "-//W3C//DTD SVG 1.1//EN"
	"http://www.w3.org/Graphics/SVG/1.1/DTD/svg11.dtd">
<svg
   xmlns:svg="http://www.w3.org/2000/svg"
   xmlns="http://www.w3.org/2000/svg"
   x="0" y="0"
   version="1.1"
   width="1024"
   height="1024"
   viewBox="0 0 1024 1024"
   id="svg2">
  <defs
     id="defs4" />
  <g
     id="layer1">
    <path
       d="M 254.28571,461.14286 C 124.95845,283.80783 172.76589,22.344179 518.57143,18.285713 C 864.73551,17.69165 924.62692,295.79296 792.85714,449.71428 C 801.32363,531.52515 801.56457,600.4124 738.57143,618.28571 C 712.86044,726.38095 722.49635,794.47619 707.14286,829.71429 C 635.26721,956.70016 410.90207,962.45201 340,831.14286 C 323.6463,789.92743 337.52032,722.46793 305.74554,612.10714 C 261.82483,595.21957 248.75392,542.69908 254.28571,461.14286 z M 254.28571,238.28571 C 236.68597,279.0198 245.12238,305.06436 261.71429,348.42857 C 272.0783,375.33333 259.50328,429.2381 254.28571,461.14286 M 797.14286,238.28571 C 809.43688,264.07903 807.15518,289.85027 790.14286,342.28571 C 778.55293,372.7619 790.24539,419.23809 792.85714,449.71428 M 394.53571,693.85714 C 384.00067,658.65442 341.99937,623.45046 305.74554,612.10714 M 655.33929,691.98214 C 671.96021,650.00825 694.47517,619.98718 738.57143,618.28571"
       id="path3284"
       style="fill:#ffffff;fill-opacity:1;fill-rule:evenodd;stroke:#000000;stroke-width:16;stroke-linecap:round;stroke-linejoin:round;stroke-miterlimit:4;stroke-dasharray:none;stroke-opacity:1" />
    <path
       d="M 340,626 C 361.01189,673.92858 372.25073,725.76637 380,779 C 428.14101,839.93798 594.10511,857.92024 665,776 C 669.80593,725.08955 687.64395,675.62711 704,626 L 655.33929,691.98214 C 649.63089,733.21426 402.00131,730.57827 394.53571,693.85714 L 340,626 z M 403.5,798 L 403.5,706 M 432,815 L 433,714 M 462.5,822 L 463,719 M 492.5,827.5 C 492.5,825.5 493,721.5 493,721.5 M 523.5,831 L 523,722.5 M 554.5,827 L 554,722 M 583,822.5 L 582,719 M 615.5,810.5 L 614,715 M 644,794 L 643,705.5 M 642,750.5 C 560.42727,786.0365 487.90875,788.55497 404,750.5"
       id="path3289"
       style="fill:none;fill-opacity:1;fill-rule:evenodd;stroke:#000000;stroke-width:8;stroke-linecap:round;stroke-linejoin:round;stroke-miterlimit:4;stroke-dasharray:none;stroke-opacity:1" />
    <path
       d="M 309.25,417.75 C 303.56019,438.67871 307.45966,465.42527 315,489 C 324.4422,518.5578 345.8971,536.1029 382,539 C 423.69936,540.05449 450.26188,515.88091 468,477 C 472.90603,465.27069 475.98314,445.65543 471,424 C 468.07163,412.98209 454.22599,396.631 440.75,388.25 C 416.10923,373.46846 318.79404,381.83808 309.25,417.75 z M 739.78743,415.07919 C 745.47724,436.0079 741.57777,462.75446 734.03743,486.32919 C 724.59523,515.88699 703.14033,533.43209 667.03743,536.32919 C 625.33807,537.38368 598.77555,513.2101 581.03743,474.32919 C 576.1314,462.59988 573.05429,442.98462 578.03743,421.32919 C 580.9658,410.31128 594.81144,393.96019 608.28743,385.57919 C 632.9282,370.79765 730.24339,379.16727 739.78743,415.07919 z M 513.5,512 L 513.5,630 C 496.04652,656.54455 489.94155,658.54925 480,658 C 466.90671,658.04665 458.07512,638.46244 460.5,616 C 466.91738,544.79686 488.51837,530.13497 513.5,512 z M 531.2995,512.46424 L 531.2995,630.46424 C 548.75298,657.00879 554.85795,659.01349 564.7995,658.46424 C 577.89279,658.51089 586.72438,638.92668 584.2995,616.46424 C 577.88212,545.2611 556.28113,530.59921 531.2995,512.46424 z"
       id="path3287"
       style="fill:#000000;fill-opacity:1;fill-rule:evenodd;stroke:none;stroke-width:1px;stroke-linecap:butt;stroke-linejoin:miter;stroke-opacity:1" />
  </g>
</svg>
