<?xml version="1.0" encoding="utf-8"?>
<!-- Svg Vector Icons : http://www.onlinewebfonts.com/icon -->
<!DOCTYPE svg PUBLIC "-//W3C//DTD SVG 1.1//EN" "http://www.w3.org/Graphics/SVG/1.1/DTD/svg11.dtd">
<svg version="1.1" xmlns="http://www.w3.org/2000/svg" xmlns:xlink="http://www.w3.org/1999/xlink" x="0px" y="0px" viewBox="0 0 1000 1000" enable-background="new 0 0 1000 1000" xml:space="preserve">
<metadata> Svg Vector Icons : http://www.onlinewebfonts.com/icon </metadata>
<g><g transform="translate(0.000000,512.000000) scale(0.100000,-0.100000)"><path d="M2442.9,4983.6c-97.6-59.3-109.1-126.3-95.7-534c30.6-857.5,74.6-1284.3,231.6-2185.8c137.8-803.9,153.1-934,153.1-1416.4c0-472.8-15.3-547.4-181.8-878.5c-199.1-398.1-241.2-597.2-223.9-1050.8c17.2-451.7,72.7-817.3,245-1581c141.6-629.7,158.9-744.5,124.4-811.5c-15.3-30.6-57.4-155-93.8-275.6c-49.8-168.4-86.1-250.7-151.2-342.6c-47.8-67-95.7-151.2-109.1-187.6c-70.8-210.5,44-419.1,264.1-480.4c38.3-11.5,325.4-19.1,664.2-19.1c646.9,0,692.9,5.7,826.8,109.1c139.7,107.2,179.9,336.9,90,539.7c-49.8,112.9-151.2,564.6-149.3,662.2c0,32.5,63.2,480.4,137.8,995.3c210.5,1447,212.5,1475.7,212.5,2287.2c0,1064.2,21.1,1246,208.6,1848.9c191.4,618.2,212.5,828.8,212.5,2180c0,980-1.9,1016.3-38.3,1077.6c-21.1,34.5-61.3,70.8-88,80.4c-28.7,11.5-468.9,19.1-1113.9,19.1C2550.1,5020,2500.3,5018.1,2442.9,4983.6z"/><path d="M5334.9,5002.8c-21-9.6-55.5-36.4-76.6-59.3c-36.4-40.2-38.3-72.7-44-1089.1c-7.7-1378.1,7.7-1535,208.6-2199.2c181.8-599.1,174.2-522.5,189.5-1611.6c13.4-874.7,19.1-1002.9,63.2-1358.9c55.5-440.2,155-1150.3,243.1-1751.3c32.5-222,55.5-423,49.8-449.8c-5.8-26.8-32.5-151.2-59.3-277.5c-26.8-126.3-70.8-277.5-95.7-336.9c-120.6-269.9-21.1-530.2,233.5-622c90-30.6,1238.3-38.3,1347.5-7.7c220.1,61.3,335,269.9,264.1,480.4c-13.4,36.4-61.3,120.6-109.1,187.6c-65.1,91.9-101.4,174.2-151.2,342.6c-36.4,120.6-78.5,245-93.8,275.6c-34.5,67-23,143.5,126.3,819.2c179.9,811.6,225.8,1115.9,243.1,1573.3C7691.1-628.2,7649-429.1,7449.9-31c-168.4,335-181.8,401.9-179.9,907.2c0,484.2,15.3,627.8,141.7,1330.2c155,878.5,201,1284.3,231.6,2065.2c23,595.3,17.2,648.8-84.2,710.1c-59.3,36.4-103.4,38.3-1123.5,36.4C5851.7,5018.1,5356,5010.4,5334.9,5002.8z"/></g></g>
</svg>