<?xml version="1.0" encoding="utf-8"?>
<!-- Svg Vector Icons : http://www.onlinewebfonts.com/icon -->
<!DOCTYPE svg PUBLIC "-//W3C//DTD SVG 1.1//EN" "http://www.w3.org/Graphics/SVG/1.1/DTD/svg11.dtd">
<svg version="1.1" xmlns="http://www.w3.org/2000/svg" xmlns:xlink="http://www.w3.org/1999/xlink" x="0px" y="0px" viewBox="0 0 1000 1000" enable-background="new 0 0 1000 1000" xml:space="preserve">
<metadata> Svg Vector Icons : http://www.onlinewebfonts.com/icon </metadata>
<g><g transform="translate(0.000000,511.000000) scale(0.100000,-0.100000)"><path d="M3975,5001.9c-36.8-36.8,0-87.8,198.1-281.9c228.8-222.6,226.7-216.5,308.4-561.7c38.8-157.3,55.2-179.8,173.6-234.9c77.6-32.7,134.8-40.8,347.2-40.8c212.4,0,269.6,8.2,347.2,40.8c118.5,55.1,134.8,77.6,173.6,234.9c81.7,345.2,79.7,339.1,310.5,563.7c145,140.9,210.4,220.6,206.3,245.1c-12.2,59.2-104.2,38.8-363.6-85.8c-290-138.9-494.3-183.8-751.6-165.4c-249.2,18.4-335,42.9-596.4,165.4C4079.2,4997.8,3999.5,5026.4,3975,5001.9z"/><path d="M3973,3794.8c-36.8-36.8,4.1-93.9,167.5-245.1c204.3-187.9,275.7-302.3,320.7-516.8c57.2-275.8,100.1-316.6,363.6-351.3c134.8-18.4,220.6-18.4,355.4,0c263.5,34.7,306.4,77.6,363.6,351.3c47,222.6,81.7,279.8,300.3,494.3c140.9,134.8,202.2,208.3,196.1,234.9c-12.2,59.2-106.2,36.8-355.4-87.8c-465.7-228.8-894.6-230.8-1362.4,0C4091.4,3786.6,3997.5,3819.3,3973,3794.8z"/><path d="M3973,2589.7c-36.8-36.8,4.1-98,171.6-249.2c208.3-190,286-324.8,326.8-559.7c47-257.4,134.8-310.5,531.1-310.5c396.3,0,484.1,53.1,531.1,310.5c40.8,234.9,120.5,369.7,328.9,561.7c132.8,120.5,181.8,179.7,177.7,210.4c-10.2,63.3-98,42.9-353.4-83.7c-469.8-232.9-896.7-232.9-1368.5,0C4089.4,2581.5,3997.5,2614.2,3973,2589.7z"/><path d="M1999.9,2070.9c-377.9-36.8-692.4-140.9-810.9-265.5C870.4,1466.3,731.5,708.5,919.4,332.7C999,175.4,1172.6,30.4,1280.9,30.4c22.5,0,102.1,55.2,177.7,122.6c200.2,177.7,324.8,232.9,518.8,230.8c459.6-4.1,898.7-355.4,1078.5-868.1c40.8-114.4,55.2-202.2,63.3-373.8c16.4-384-63.3-592.3-365.6-970.2c-426.9-533.1-410.6-704.7,98-1035.6c543.3-355.4,739.4-355.4,1319.5-12.2c159.3,93.9,377.9,214.5,484.1,267.6c179.7,87.8,206.3,96,347.2,96c140.9,0,167.5-8.2,347.2-96c106.2-53.1,324.8-173.6,484.1-267.6c510.6-302.3,686.3-326.8,1051.9-140.9c435,220.6,670,439.1,670,625c0,124.6-94,300.3-294.1,551.5C7047-1571,7002-1497.4,6932.6-1289.1c-153.2,457.5,8.2,1029.4,386,1374.6c232.8,214.5,455.5,300.2,737.3,288c218.6-10.2,292.1-42.9,498.4-220.6c79.6-67.4,161.3-122.6,181.8-122.6c116.4,0,339.1,228.8,394.2,404.4c34.7,114.4,47,480,20.4,623c-73.5,384-265.5,743.5-451.4,841.5c-365.6,192-1182.6,241-1797.4,108.3c-388.1-81.7-620.9-202.2-833.3-428.9c-63.3-69.4-175.7-187.9-247.1-265.5c-222.6-236.9-412.6-294.1-908.9-275.7c-455.5,16.3-480,28.6-870.1,422.8c-281.9,288-332.9,330.9-473.9,396.3c-171.6,81.7-451.4,159.3-692.4,194C2643.3,2083.1,2214.3,2093.3,1999.9,2070.9z M3832-269.9c36.8-16.3,114.4-87.8,171.6-157.3c57.2-67.4,155.2-169.6,216.5-226.7c165.4-147.1,449.4-471.8,518.8-592.3c71.5-122.5,77.6-234.9,16.3-318.6c-112.3-159.3-396.3-100.1-763.9,161.3c-290,206.3-604.6,569.9-637.3,739.4c-26.5,143,69.5,357.4,187.9,418.7C3611.4-208.6,3725.8-218.8,3832-269.9z M6526.1-298.5c71.5-69.5,130.7-210.4,130.7-312.5c0-108.3-104.2-277.8-294.1-475.9c-286-300.2-551.5-482-798.6-547.4c-298.2-77.6-451.4,122.6-298.2,388.1c79.7,136.9,192,265.5,574,655.7c255.3,261.4,339,335,400.3,351.3C6360.7-206.6,6450.6-224.9,6526.1-298.5z M4017.9-1856.9c316.6-112.3,394.2-426.9,140.9-571.9c-208.3-120.5-465.7-147.1-637.3-65.4c-183.8,87.8-335,292.1-306.4,420.8c18.4,79.7,114.4,163.4,239,206.3C3589-1820.2,3897.4-1816.1,4017.9-1856.9z M6530.2-1859c126.7-38.8,241-132.8,259.4-212.4c28.6-130.7-120.5-335-306.4-422.8c-171.6-81.7-428.9-55.2-637.3,65.4c-249.2,145-177.7,455.5,130.7,569.9C6082.9-1820.2,6399.5-1820.2,6530.2-1859z"/><path d="M1830.3,5.9c-104.2-28.6-187.9-116.4-236.9-257.4c-104.2-285.9-173.6-351.3-388.1-351.3c-73.5,0-190,14.3-257.4,30.6c-355.4,85.8-578-18.4-672-312.5c-87.8-277.8-61.3-441.2,128.7-839.5c232.8-482.1,375.8-966.1,428.9-1440c12.2-100.1,28.6-508.6,34.7-904.8l14.3-721l451.4,4.1l451.4,6.1l4.1,143c16.3,563.7,53.1,1323.6,69.5,1511.5c49,494.3,202.2,876.2,529,1307.2c367.7,484.1,475.9,831.3,367.7,1178.5c-69.4,228.8-314.5,529-514.7,631.1C2157.1,34.5,1965.1,40.6,1830.3,5.9z"/><path d="M7759.8-8.4c-202.2-110.3-441.2-406.5-510.6-631.1c-108.3-345.2,2-694.5,367.7-1178.5c339.1-449.4,484.1-817,529-1348.1c30.6-343.1,63.3-1076.4,63.3-1382.8v-241h455.5h457.5l12.2,714.9c16.3,788.4,32.7,1000.8,110.3,1348.1c73.5,339.1,173.6,618.9,347.2,984.5c171.6,361.5,202.2,490.2,167.5,708.8c-65.4,416.7-286,561.7-702.6,461.6c-159.3-38.8-363.6-38.8-439.2,0c-79.7,40.9-134.8,116.4-175.6,241C8354.2-59.5,8264.3,12,7994.7,24.2C7861.9,30.4,7817,24.2,7759.8-8.4z"/></g></g>
</svg>