<?xml version="1.0" encoding="iso-8859-1"?>
<!-- Generator: Adobe Illustrator 18.0.0, SVG Export Plug-In . SVG Version: 6.00 Build 0)  -->
<!DOCTYPE svg PUBLIC "-//W3C//DTD SVG 1.1//EN" "http://www.w3.org/Graphics/SVG/1.1/DTD/svg11.dtd">
<svg version="1.1" id="Capa_1" xmlns="http://www.w3.org/2000/svg" xmlns:xlink="http://www.w3.org/1999/xlink" x="0px" y="0px"
	 viewBox="0 0 502.444 502.444" style="enable-background:new 0 0 502.444 502.444;" xml:space="preserve">
<g>
	<path d="M499.274,392.464c-1.012-0.259-101.668-26.314-141.378-55.843c-30.99-23.044-20.105-94.043-16.342-113.914
		c6.046-8.056,9.921-14.538,11.541-17.395c12.015-21.183,33.218-95.121,34.114-98.258c0.641-2.239-0.656-4.572-2.895-5.212
		c-2.236-0.639-4.572,0.656-5.213,2.895c-0.159,0.559-11.939,41.643-22.737,71.342h-38.68c-2.328,0-4.216,1.887-4.216,4.216
		c0,2.328,1.888,4.216,4.216,4.216h35.516c-2.699,6.939-5.251,12.784-7.439,16.642c-13.906,24.519-49.333,66.818-94.044,70.146
		c-44.71-3.328-80.137-45.627-94.043-70.146c-1.867-3.292-4-8.035-6.263-13.666h76.002c2.329,0,4.217-1.888,4.217-4.216
		c0-2.329-1.888-4.216-4.217-4.216h-79.25c-2.018-5.437-4.086-11.337-6.12-17.36h43.707c2.328,0,4.216-1.887,4.216-4.216
		c0-2.328-1.888-4.216-4.216-4.216h-46.51c-7.986-24.388-14.786-48.102-14.907-48.526c-0.641-2.239-2.975-3.535-5.213-2.895
		c-2.238,0.64-3.535,2.973-2.895,5.212c0.896,3.137,22.1,77.075,34.113,98.258c1.514,2.668,4.993,8.498,10.371,15.819
		c3.387,17.335,15.718,91.783-16.163,115.49C104.838,366.15,4.181,392.205,3.17,392.464c-2.256,0.579-3.615,2.877-3.036,5.132
		c0.488,1.904,2.202,3.169,4.08,3.169c0.348,0,0.7-0.043,1.051-0.133c4.198-1.077,103.274-26.727,144.314-57.244
		c31.459-23.392,25.704-82.716,21.154-109.741c4.397,5.04,9.461,10.302,15.179,15.43c20.907,18.75,42.948,29.063,65.51,30.654
		c0.099,0.007,0.197,0.011,0.296,0.011c0.1,0,0.198-0.003,0.297-0.011c22.561-1.591,44.603-11.905,65.51-30.654
		c5.196-4.661,9.85-9.431,13.956-14.046c-4.502,27.619-9.546,85.358,21.385,108.357c22.11,16.441,61.06,31.466,92.949,42h-68.609
		c-2.329,0-4.217,1.888-4.217,4.216c0,2.328,1.888,4.216,4.217,4.216h95.589c13.729,4.057,23.153,6.496,24.386,6.811
		c0.352,0.09,0.703,0.133,1.051,0.133c1.879,0,3.592-1.265,4.08-3.169C502.889,395.341,501.53,393.043,499.274,392.464z"/>
	<path d="M311.046,260.25c-2.327-0.229-4.375,1.481-4.595,3.799c-2.171,22.875-2.068,54.646,10.747,76.09
		c0.789,1.321,2.188,2.054,3.622,2.054c0.736,0,1.481-0.193,2.159-0.598c1.999-1.194,2.65-3.783,1.456-5.781
		c-11.643-19.484-11.643-49.347-9.591-70.969C315.065,262.528,313.364,260.47,311.046,260.25z"/>
	<path d="M180.457,341.595c0.678,0.405,1.423,0.598,2.158,0.598c1.436,0,2.834-0.733,3.623-2.054
		c12.816-21.444,12.918-53.214,10.747-76.09c-0.221-2.318-2.278-4.024-4.595-3.799c-2.318,0.22-4.02,2.278-3.799,4.595
		c2.052,21.622,2.053,51.485-9.591,70.969C177.806,337.812,178.458,340.401,180.457,341.595z"/>
	<path d="M363.801,366.571c-6.84,0.829-67.213,8.46-80.72,20.927c-1.711,1.579-1.817,4.247-0.238,5.957
		c0.831,0.9,1.963,1.357,3.099,1.357c1.023,0,2.048-0.37,2.859-1.118c8.724-8.053,50.238-15.626,76.015-18.752
		c2.311-0.28,3.958-2.381,3.678-4.693C368.214,367.938,366.112,366.291,363.801,366.571z"/>
	<path d="M138.642,366.571c-2.301-0.277-4.412,1.366-4.692,3.678c-0.28,2.311,1.366,4.412,3.679,4.692
		c17.834,2.162,66.256,9.745,76.014,18.752c0.812,0.749,1.837,1.118,2.859,1.118c1.135,0,2.268-0.457,3.099-1.357
		c1.579-1.711,1.473-4.378-0.238-5.957C205.855,375.031,145.482,367.4,138.642,366.571z"/>
</g>
<g>
</g>
<g>
</g>
<g>
</g>
<g>
</g>
<g>
</g>
<g>
</g>
<g>
</g>
<g>
</g>
<g>
</g>
<g>
</g>
<g>
</g>
<g>
</g>
<g>
</g>
<g>
</g>
<g>
</g>
</svg>
