<svg id="_x33_0" enable-background="new 0 0 64 64" height="512" viewBox="0 0 64 64" width="512" xmlns="http://www.w3.org/2000/svg"><g><path d="m34.749 7.263.182.364 2.692-1.077c.832-.332 1.377-1.137 1.377-2.033 0-.34-.079-.675-.231-.98l-.188-.375c-.356-.712-1.084-1.162-1.88-1.162-.455 0-.897.148-1.261.42l-2.35 1.762c.174.202.33.422.451.664z"/><path d="m38.938 20s.032 4.107-.019 4.828l2.559-.523c.885-.178 1.522-.955 1.522-1.858 0-.294-.068-.584-.2-.847l-.276-.553c-.321-.642-.977-1.047-1.695-1.047z"/><path d="m36.551 46.081.274 1.094.351.088c.887.222 1.702.617 2.411 1.15l.892-.892c.333-.333.521-.786.521-1.259v-.482c0-.983-.797-1.78-1.781-1.78-.146 0-.291.018-.432.053l-2.473.618c.023.139.04.28.065.419z"/><path d="m40 38.36v-.36c0-1.105-.895-2-2-2h-1.515s-.485 4.67-.485 4.8l2.392-.478c.935-.187 1.608-1.008 1.608-1.962z"/><path d="m42 30.436c0-.287-.067-.569-.195-.826l-.295-.589c-.312-.626-.952-1.021-1.651-1.021h-1.336c-.1.54-1.213 4.782-1.213 4.782l3.148-.525c.889-.148 1.542-.919 1.542-1.821z"/><path d="m36.894 11.72 1.277 3.988 1.526-.381c.766-.193 1.303-.881 1.303-1.671v-.936c0-.95-.77-1.72-1.721-1.72-.185 0-.369.03-.544.088z"/><path d="m29.86 15.688.082.225c.187.513.345 1.033.482 1.558l5.614-1.871c-.235-.875-.508-1.74-.826-2.588z"/><path d="m33.353 8.942-5.031 2.516.85 2.339 5.264-2.632c-.121-.262-.235-.526-.363-.784z"/><path d="m30.81 19.451c.091.64.147 1.285.166 1.934l5.891-1.178c-.084-.888-.208-1.772-.377-2.649z"/><path d="m36.671 27h-6.432c-.125.414-.254.826-.41 1.232l-.194.505 6.532.726c.202-.814.377-1.635.504-2.463z"/><path d="m34.925 33.875c.072-.269.13-.541.211-.808l.495-1.651-6.739-.749-.936 2.433z"/><path d="m27.633 9.565 4.825-2.412-.706-1.411c-.322-.643-1.159-.922-1.8-.6l-2.113 1.057c-.518.259-.839.779-.839 1.357 0 .178.031.352.091.518z"/><path d="m30.724 25h6.181c.059-.737.095-1.476.095-2.217 0-.187-.013-.373-.016-.56l-6.053 1.211c-.045.526-.115 1.048-.207 1.566z"/><path d="m40.909 57.283-.71-.102c-1.254-.179-2.199-1.268-2.199-2.535 0-.684.266-1.327.75-1.811l1.076-1.077c-.608-1.271-1.745-2.208-3.137-2.556l-.431-.108-5.621 4.818c.124.054.255.088.392.088 1.547 0 3.025.739 3.953 1.977l.52.693c.66.88 1.665 1.454 2.758 1.576l4.628.514c.348.039.685.114 1.01.219-.735-.892-1.782-1.524-2.989-1.696z"/><path d="m34.819 47.399-7.084 2.125c.457.987.997 1.94 1.628 2.848l5.517-4.729z"/><path d="m46.365 54.445-1.141-.761-.315-.631c-.325-.649-.978-1.053-1.705-1.053-.501 0-.993.204-1.348.558l-.149.149-1.543 1.543c-.104.104-.164.249-.164.396 0 .277.207.516.481.555l.71.102c2.713.387 4.877 2.391 5.571 4.942.782-.691 1.238-1.684 1.238-2.745 0-1.23-.611-2.372-1.635-3.055z"/><path d="m34.201 44.085-7.918.792c.163.947.398 1.876.704 2.783l7.422-2.227c-.079-.448-.153-.897-.208-1.348z"/><path d="m34 40.807c0-.27.021-.538.029-.807h-7.953c-.049.553-.076 1.109-.076 1.668 0 .41.021.816.047 1.222l7.992-.799c-.02-.428-.039-.856-.039-1.284z"/><path d="m34.48 35.837-7.262-.807c-.367.97-.646 1.962-.847 2.97h7.793c.076-.725.182-1.446.316-2.163z"/></g></svg>