<?xml version="1.0" encoding="utf-8"?>
<!-- Svg Vector Icons : http://www.onlinewebfonts.com/icon -->
<!DOCTYPE svg PUBLIC "-//W3C//DTD SVG 1.1//EN" "http://www.w3.org/Graphics/SVG/1.1/DTD/svg11.dtd">
<svg version="1.1" xmlns="http://www.w3.org/2000/svg" xmlns:xlink="http://www.w3.org/1999/xlink" x="0px" y="0px" viewBox="0 0 1000 1000" enable-background="new 0 0 1000 1000" xml:space="preserve">
<metadata> Svg Vector Icons : http://www.onlinewebfonts.com/icon </metadata>
<g><rect x="10" y="10" fill="none" width="980" height="980"/><path d="M949.2,373.4c0-12.2,0-36.7,0-73.5c0-163.3-138.8-232.8-240.9-240.9c-36.7-24.5-69.4-40.8-98-44.9c-4.1,0-8.2,0-12.2,0H402c-4.1-4.1-8.2-4.1-12.3-4.1c-32.7,8.2-65.3,20.4-102.1,49C185.6,67.2,50.8,136.6,50.8,299.9c0,36.7,0,61.3,0,73.5C34.5,397.9,10,446.9,10,544.9c0,24.5,12.2,53.1,36.7,65.4l118.4,65.3c12.3,8.2,24.5,12.2,36.8,12.2c8.2,0,20.4-24.5,20.4-24.5c0,4.1,0,32.7,0,40.8c0,12.2-4.1,24.5-4.1,32.7c0,20.4-4.1,32.7-4.1,61.3c0,77.6,81.7,142.9,130.7,179.7c12.2,8.2,28.6,12.2,40.8,12.2h224.6c16.3,0,28.6-4.1,44.9-12.2c49-32.7,130.7-102.1,130.7-179.7c0-28.6,0-40.8-4.1-65.3c0-8.2-4.1-20.4-4.1-32.7c0-8.2,0-32.7,0-40.8c0,0,12.2,24.5,20.4,24.5c12.2,0,28.6-4.1,36.8-12.2l118.4-65.4c24.5-12.2,36.8-36.7,36.8-65.3C990,446.9,961.4,397.9,949.2,373.4z M920.6,557.2l-102.1,57.1c0,0-49,4.1-73.5-73.5c-4.1,77.6-28.6,118.4-28.6,118.4c0,8.1,0,40.8,0,53.1c0,12.2,4.1,24.5,4.1,32.7c4.1,16.3,4.1,28.6,4.1,53.1c0,36.8-40.8,85.8-102.1,126.6c-4.1,0-4.1,4.1-8.2,4.1H385.7c-4.1,0-4.1,0-8.2-4.1c-65.3-44.9-102.1-93.9-102.1-126.6c0-24.5,0-32.7,4.1-53.1c0-8.2,4.1-20.4,4.1-32.7c0-12.2,0-40.8,0-53.1c0,0-32.7-69.4-28.6-118.4c-24.5,44.9-73.5,73.5-73.5,73.5L75.3,557.2c-4.1-4.1-8.2-8.2-8.2-12.3c0-89.8,24.5-126.6,32.7-142.9l12.2-16.3v-20.4c0-16.3-4.1-40.8-4.1-69.4c0-155.2,163.3-179.7,183.8-179.7h16.3l12.3-8.2c32.7-20.4,57.2-32.7,77.6-36.7c0,0,0,0,4.1,0h196c0,0,0,0,4.1,0c20.4,4.1,49,16.3,73.5,36.7l12.2,8.2h16.3c20.4,0,183.8,24.5,183.8,179.7c0,28.6,0,49-4.1,69.4l-4.1,20.4L892,402c8.2,16.3,32.7,53.1,32.7,142.9C928.8,553.1,924.7,557.2,920.6,557.2z"/><g><path d="M704.2,442.8c-32.7,20.4-49,16.3-77.6,12.2c-57.1-4.1-89.8-16.3-98-20.4c-4.1-8.2-28.6-138.8-28.6-138.8s-24.5,130.7-32.7,138.8c-8.2,8.2-40.8,20.4-98,20.4c-28.6,0-44.9,4.1-77.6-12.2c-32.7-20.4-81.7-98-81.7-98s16.3,61.3,28.6,85.7C275.4,495.9,304,500,377.5,500c32.7,0,122.5,0,122.5-44.9c0-8.2,0-8.2,0,0c0,44.9,89.8,44.9,122.5,44.9c73.5,0,102.1-4.1,134.7-69.4c12.2-24.5,28.6-85.7,28.6-85.7S740.9,422.4,704.2,442.8z"/><path d="M500,459.2"/></g></g>
</svg>